<?xml version="1.0" encoding="utf-8"?>
<!-- Generator: Adobe Illustrator 21.0.2, SVG Export Plug-In . SVG Version: 6.00 Build 0)  -->
<svg xmlns="http://www.w3.org/2000/svg" xmlns:xlink="http://www.w3.org/1999/xlink" version="1.1" id="Layer_1" x="0px" y="0px" viewBox="0 0 40 40" style="enable-background:new 0 0 40 40;" xml:space="preserve" width="30px" height="30px">
<path style="fill:#8585CC;" d="M30.5,38.5c4.4,0,8-3.6,8-8v-21c0-4.4-3.6-8-8-8h-21c-4.4,0-8,3.6-8,8v21c0,4.4,3.6,8,8,8H30.5z"/>
<path style="fill:#8D8DD8;" d="M3.4,4.3C2.2,5.7,1.5,7.5,1.5,9.5v21c0,4.4,3.6,8,8,8h21c4.4,0,8-3.6,8-8v-21c0-0.5-0.1-1-0.1-1.5  C32.1,4.2,24.8,2,17,2C12.2,2,7.7,2.8,3.4,4.3z"/>
<path style="fill:#BD82F4;" d="M1.5,9.4C1.5,9.4,1.5,9.5,1.5,9.4l0,21.1c0,4.4,3.6,8,8,8h21c4.4,0,8-3.6,8-8V12.9  C32.4,8.6,25,6,17,6C11.5,6,6.2,7.2,1.5,9.4z"/>
<path style="fill:#ED73F4;" d="M1.5,13.9v16.6c0,4.4,3.6,8,8,8h21c4.4,0,8-3.6,8-8V18c-5.8-5-13.3-8-21.5-8  C11.4,10,6.1,11.4,1.5,13.9z"/>
<path style="fill:#F97DCD;" d="M17,14c-5.7,0-11,1.7-15.5,4.5v12c0,4.4,3.6,8,8,8h21c4.4,0,8-3.6,8-8v-6.9C33.2,17.7,25.5,14,17,14z  "/>
<g>
	<path style="fill:#FC9C95;" d="M17,18c-5.9,0-11.2,2-15.5,5.4v7.1c0,4.4,3.6,8,8,8h21c4.4,0,8-3.6,8-8v-0.2   C34.1,22.9,26.2,18,17,18z"/>
</g>
<path style="fill:#FFAC99;" d="M17,22c-6.1,0-11.7,2.7-15.5,6.9v1.6c0,4.4,3.6,8,8,8h21c2.5,0,4.7-1.1,6.1-2.9  C33.6,27.7,26,22,17,22z"/>
<g>
	<path style="fill:#FFC49C;" d="M30.5,38.5c1,0,1.9-0.2,2.7-0.5c-2.1-6.9-8.6-12-16.2-12c-6.2,0-11.6,3.3-14.6,8.2   c1.3,2.5,4,4.3,7.1,4.3H30.5z"/>
</g>
<g>
	<path style="fill:#FFDE8D;" d="M17,30c-5.1,0-9.6,3-11.7,7.3c1.2,0.8,2.6,1.2,4.2,1.2h19.7C27.4,33.5,22.6,30,17,30z"/>
</g>
<g>
	<path style="fill:#FFF69F;" d="M17,34c-3.3,0-6.2,1.8-7.8,4.5c0.1,0,0.2,0,0.3,0h15.3C23.2,35.8,20.3,34,17,34z"/>
</g>
<path style="fill:#8B75A1;" d="M31,2c3.9,0,7,3.1,7,7v22c0,3.9-3.1,7-7,7H9c-3.9,0-7-3.1-7-7V9c0-3.9,3.1-7,7-7H31 M31,1H9  C4.6,1,1,4.6,1,9v22c0,4.4,3.6,8,8,8h22c4.4,0,8-3.6,8-8V9C39,4.6,35.4,1,31,1L31,1z"/>
<circle style="fill:#FFFFFF;" cx="27.5" cy="12.5" r="1.5"/>
<path style="fill:#FFFFFF;" d="M20,27c-3.9,0-7-3.1-7-7c0-3.9,3.1-7,7-7c3.9,0,7,3.1,7,7C27,23.9,23.9,27,20,27z M20,15  c-2.8,0-5,2.2-5,5s2.2,5,5,5s5-2.2,5-5S22.8,15,20,15z"/>
<path style="fill:#FFFFFF;" d="M25.5,34h-11C9.8,34,6,30.2,6,25.5v-11C6,9.8,9.8,6,14.5,6h11c4.7,0,8.5,3.8,8.5,8.5v11  C34,30.2,30.2,34,25.5,34z M14.5,8C10.9,8,8,10.9,8,14.5v11c0,3.6,2.9,6.5,6.5,6.5h11c3.6,0,6.5-2.9,6.5-6.5v-11  c0-3.6-2.9-6.5-6.5-6.5H14.5z"/>
</svg>
